<?xml version="1.0" encoding="utf-8"?>
<!-- Generator: Adobe Illustrator 21.0.0, SVG Export Plug-In . SVG Version: 6.00 Build 0)  -->
<svg version="1.1" id="Layer_1" xmlns="http://www.w3.org/2000/svg" xmlns:xlink="http://www.w3.org/1999/xlink" x="0px" y="0px"
	 viewBox="0 0 120 120" style="enable-background:new 0 0 120 120;" xml:space="preserve">
<style type="text/css">
	
		.st0{opacity:0.5;fill:none;stroke:#BDC5D1;stroke-width:3;stroke-linecap:round;stroke-linejoin:round;stroke-miterlimit:10;enable-background:new    ;}
	.st1{opacity:0.5;fill:#BDC5D1;enable-background:new    ;}
	.st2{fill:#E39A1B;}
	.st3{fill:none;stroke:#FFFFFF;stroke-width:3;stroke-linecap:round;stroke-linejoin:round;stroke-miterlimit:10;}
	.st4{fill:none;stroke:#E39A1B;stroke-width:3;stroke-linecap:round;stroke-linejoin:round;stroke-miterlimit:10;}
	
		.st5{opacity:0.5;fill:none;stroke:#FFFFFF;stroke-width:3;stroke-linecap:round;stroke-linejoin:round;stroke-miterlimit:10;enable-background:new    ;}
	.st6{fill:none;stroke:#BDC5D1;stroke-width:3;stroke-linecap:round;stroke-linejoin:round;stroke-miterlimit:10;}
</style>
<line class="st0" x1="25.2" y1="66.2" x2="35.9" y2="66.2"/>
<line class="st0" x1="44.3" y1="76.4" x2="33.2" y2="76.4"/>
<line class="st0" x1="27.8" y1="76.5" x2="22.3" y2="76.5"/>
<line class="st0" x1="6.4" y1="85.8" x2="11.8" y2="85.8"/>
<line class="st0" x1="17.1" y1="85.8" x2="33.1" y2="85.8"/>
<line class="st0" x1="17.1" y1="76.5" x2="1.8" y2="76.5"/>
<line class="st0" x1="19" y1="66.2" x2="15.4" y2="66.2"/>
<path class="st1" d="M115.7,114.2h-77c-2.4,0-4.3-2-4.3-4.3v-48c0-2.4,2-4.3,4.3-4.3h76.9c2.4,0,4.3,2,4.3,4.3v48
	C120,112.2,118,114.2,115.7,114.2z"/>
<path class="st2" d="M106.1,102.9H29.2c-2.4,0-4.3-2-4.3-4.3v-48c0-2.4,2-4.3,4.3-4.3h76.9c2.4,0,4.3,2,4.3,4.3v48
	C110.4,100.9,108.5,102.9,106.1,102.9z"/>
<g>
	<line class="st3" x1="78.4" y1="81.6" x2="109.6" y2="101.5"/>
	<line class="st3" x1="56.9" y1="81.6" x2="25.6" y2="101.5"/>
	<line class="st3" x1="25.6" y1="47.9" x2="67.6" y2="78.6"/>
	<line class="st3" x1="109.6" y1="47.9" x2="67.6" y2="78.6"/>
</g>
<path class="st4" d="M106.1,102.9H29.2c-2.4,0-4.3-2-4.3-4.3v-48c0-2.4,2-4.3,4.3-4.3h76.9c2.4,0,4.3,2,4.3,4.3v48
	C110.4,100.9,108.5,102.9,106.1,102.9z"/>
<line class="st5" x1="70" y1="95.1" x2="55.8" y2="95.1"/>
<line class="st5" x1="76.2" y1="95.1" x2="82.6" y2="95.1"/>
<path class="st6" d="M89.9,107.9"/>
<line class="st0" x1="72.5" y1="36.3" x2="90.4" y2="36.3"/>
<line class="st0" x1="108.7" y1="27.9" x2="103.4" y2="27.9"/>
<line class="st0" x1="98" y1="27.9" x2="82.1" y2="27.9"/>
<line class="st0" x1="97" y1="36.2" x2="112.4" y2="36.2"/>
<path class="st6" d="M5,41.6V14.7c0-2.1,1.8-3.9,3.9-3.9h77.8c2.2,0,3.9,1.7,3.9,3.9v5.5"/>
<g>
	<line class="st6" x1="17.5" y1="20.3" x2="47.4" y2="39.2"/>
	<line class="st6" x1="78" y1="20" x2="47.6" y2="39.2"/>
</g>
<path class="st6" d="M25.2,5.8"/>
</svg>
