<?xml version="1.0" encoding="utf-8"?>
<!-- Generator: Adobe Illustrator 21.0.0, SVG Export Plug-In . SVG Version: 6.00 Build 0)  -->
<svg version="1.1" id="Layer_1" xmlns="http://www.w3.org/2000/svg" xmlns:xlink="http://www.w3.org/1999/xlink" x="0px" y="0px"
	 viewBox="0 0 120 120" style="enable-background:new 0 0 120 120;" xml:space="preserve">
<style type="text/css">
	
		.st0{opacity:0.5;fill:none;stroke:#BDC5D1;stroke-width:3;stroke-linecap:round;stroke-linejoin:round;stroke-miterlimit:10;enable-background:new    ;}
	.st1{fill:none;stroke:#BDC5D1;stroke-width:3;stroke-linecap:round;stroke-linejoin:round;stroke-miterlimit:10;}
	.st2{opacity:0.5;fill:#BDC5D1;enable-background:new    ;}
	.st3{fill:#E39A1B;}
	
		.st4{opacity:0.5;fill:none;stroke:#FFFFFF;stroke-width:3;stroke-linecap:round;stroke-linejoin:round;stroke-miterlimit:10;enable-background:new    ;}
	.st5{fill:none;stroke:#FFFFFF;stroke-width:3;stroke-linecap:round;stroke-linejoin:round;stroke-miterlimit:10;}
</style>
<line class="st0" x1="75.1" y1="17.1" x2="77" y2="23.8"/>
<line class="st0" x1="25.1" y1="26" x2="29.8" y2="24.7"/>
<path class="st1" d="M11.4,41.1l-2-7.1c-0.5-1.9,0.6-3.9,2.5-4.4l7.5-2.1"/>
<path class="st1" d="M90.9,48.9L80.2,10c-0.8-3-4-4.8-7-4L5.8,24.7c-3,0.8-4.8,4-4,7l11.6,41.8c0.8,3,4,4.8,7,4l8.5-2.3"/>
<path class="st2" d="M113.8,114.1H42.1c-3.4,0-6.2-2.8-6.2-6.2V62.8c0-3.4,2.8-6.2,6.2-6.2h71.7c3.4,0,6.2,2.8,6.2,6.2v45.1
	C120,111.3,117.2,114.1,113.8,114.1z"/>
<path class="st3" d="M105.4,103.3H33.7c-3.4,0-6.2-2.8-6.2-6.2V52c0-3.4,2.8-6.2,6.2-6.2h71.7c3.4,0,6.2,2.8,6.2,6.2v45.1
	C111.6,100.6,108.9,103.3,105.4,103.3z"/>
<line class="st4" x1="41" y1="84.7" x2="32.3" y2="84.7"/>
<line class="st4" x1="50.1" y1="90.8" x2="32.3" y2="90.8"/>
<rect x="90" y="83.2" class="st4" width="16.9" height="7.6"/>
<line class="st5" x1="106.8" y1="61.1" x2="32.3" y2="61.1"/>
<line class="st5" x1="106.8" y1="74.6" x2="32.3" y2="74.6"/>
</svg>
