<?xml version="1.0" encoding="utf-8"?>
<!-- Generator: Adobe Illustrator 21.0.0, SVG Export Plug-In . SVG Version: 6.00 Build 0)  -->
<svg version="1.1" id="Layer_1" xmlns="http://www.w3.org/2000/svg" xmlns:xlink="http://www.w3.org/1999/xlink" x="0px" y="0px"
	 viewBox="0 0 120 120" style="enable-background:new 0 0 120 120;" xml:space="preserve">
<style type="text/css">
	.st0{opacity:0.3;fill:#BDC5D1;enable-background:new    ;}
	.st1{fill:#FFFFFF;stroke:#BDC5D1;stroke-width:3;stroke-linecap:round;stroke-miterlimit:10;}
	.st2{fill:none;stroke:#BDC5D1;stroke-width:3;stroke-linecap:round;stroke-miterlimit:10;}
	.st3{fill:#FFFFFF;stroke:#E39A1B;stroke-width:3;stroke-linecap:round;stroke-miterlimit:10;}
	.st4{fill:none;stroke:#E39A1B;stroke-width:3;stroke-linecap:round;stroke-miterlimit:10;}
</style>
<path class="st0" d="M22.2,22.4H4V2.3h20.1v18.2C24.2,21.6,23.3,22.4,22.2,22.4z"/>
<path class="st1" d="M18.7,17.8H4.9c-0.5,0-0.9-0.4-0.9-0.9V3.2c0-0.5,0.4-0.9,0.9-0.9h13.8c0.5,0,0.9,0.4,0.9,0.9V17
	C19.5,17.4,19.1,17.8,18.7,17.8z"/>
<path class="st2" d="M59.8,2.3h21.9c0.4,0,0.8,0.3,0.8,0.8V80c0,0.4-0.3,0.8-0.8,0.8H4.8C4.4,80.8,4,80.4,4,80V3.1
	c0-0.4,0.3-0.8,0.8-0.8h30.3"/>
<path class="st2" d="M116,88.6v28.3c0,0.4-0.3,0.8-0.8,0.8H83.3c-0.4,0-0.8-0.3-0.8-0.8V40c0-0.4,0.3-0.8,0.8-0.8h31.9
	c0.4,0,0.8,0.3,0.8,0.8v28.3"/>
<path class="st0" d="M33.6,115.9h-9.7c-0.4,0-0.8-0.3-0.8-0.8V65.8c0-0.4,0.3-0.8,0.8-0.8h49.4c0.4,0,0.8,0.3,0.8,0.8v49.4
	c0,0.4-0.3,0.8-0.8,0.8h-19"/>
<path class="st3" d="M42,106.2h-9.7c-0.4,0-0.8-0.3-0.8-0.8V56.1c0-0.4,0.3-0.8,0.8-0.8h49.4c0.4,0,0.8,0.3,0.8,0.8v49.4
	c0,0.4-0.3,0.8-0.8,0.8h-19"/>
<path class="st4" d="M81.6,72.2H66.4c-0.5,0-0.9-0.4-0.9-0.9V56.1c0-0.5,0.4-0.9,0.9-0.9h15.2c0.5,0,0.9,0.4,0.9,0.9v15.2
	C82.5,71.8,82.1,72.2,81.6,72.2z"/>
<line class="st2" x1="35.1" y1="2.3" x2="51" y2="22.4"/>
<line class="st2" x1="116" y1="68.3" x2="105.4" y2="82.8"/>
<line class="st4" x1="62.6" y1="106.2" x2="49.8" y2="94.1"/>
</svg>
