<?xml version="1.0" encoding="utf-8"?>
<!-- Generator: Adobe Illustrator 21.0.0, SVG Export Plug-In . SVG Version: 6.00 Build 0)  -->
<svg version="1.1" id="Layer_1" xmlns="http://www.w3.org/2000/svg" xmlns:xlink="http://www.w3.org/1999/xlink" x="0px" y="0px"
	 viewBox="0 0 120 120" style="enable-background:new 0 0 120 120;" xml:space="preserve">
<style type="text/css">
	.st0{fill:none;stroke:#BDC5D1;stroke-width:3;stroke-linecap:round;stroke-linejoin:round;stroke-miterlimit:10;}
	
		.st1{opacity:0.5;fill:none;stroke:#BDC5D1;stroke-width:3;stroke-linecap:round;stroke-linejoin:round;stroke-miterlimit:10;enable-background:new    ;}
	.st2{fill:#E39A1B;}
	.st3{fill:#FFFFFF;}
	.st4{opacity:0.5;fill:#BDC5D1;enable-background:new    ;}
	.st5{fill:none;stroke:#FFFFFF;stroke-width:3;stroke-linecap:round;stroke-linejoin:round;stroke-miterlimit:10;}
</style>
<line class="st0" x1="110.9" y1="106" x2="81.3" y2="106"/>
<line class="st0" x1="58.7" y1="106" x2="8.7" y2="106"/>
<line class="st1" x1="91.7" y1="116.4" x2="41.7" y2="116.4"/>
<line class="st1" x1="54.8" y1="63" x2="4.8" y2="63"/>
<line class="st1" x1="38.8" y1="73.8" x2="22.2" y2="73.8"/>
<line class="st1" x1="75.9" y1="82.6" x2="59.2" y2="82.6"/>
<line class="st1" x1="13.7" y1="73.8" x2="9.4" y2="73.8"/>
<line class="st1" x1="30.8" y1="55.5" x2="20.7" y2="55.5"/>
<line class="st1" x1="112.2" y1="116.4" x2="106.6" y2="116.4"/>
<line class="st1" x1="19.9" y1="116.4" x2="9.4" y2="116.4"/>
<line class="st1" x1="81.3" y1="48.3" x2="75.7" y2="48.3"/>
<path class="st0" d="M118.1,95.7H89.7V70.9h24c2.4,0,4.4,2,4.4,4.4V95.7z"/>
<line class="st0" x1="108.4" y1="56.2" x2="111.8" y2="70.7"/>
<polyline class="st0" points="15.8,39.1 15.8,33.4 89.7,33.4 89.7,95.7 15.8,95.7 15.8,86.7 "/>
<circle class="st2" cx="103" cy="95.7" r="8.6"/>
<circle class="st3" cx="103" cy="95.7" r="2.6"/>
<circle class="st2" cx="38.3" cy="95.7" r="8.6"/>
<circle class="st3" cx="38.3" cy="95.7" r="2.6"/>
<path class="st4" d="M19.2,7.1C11,7.1,4.5,13.8,4.5,21.9c0,4.3,5.1,14,13.5,25.7c0.3,0.4,0.7,0.6,1.2,0.6s0.9-0.2,1.2-0.6
	C28.8,36.1,34,26.4,34,21.9C34,13.8,27.3,7.1,19.2,7.1z"/>
<path class="st2" d="M14.9,1.6C6.7,1.6,0.1,8.3,0.1,16.4c0,4.3,5.1,14,13.5,25.7c0.3,0.4,0.7,0.6,1.2,0.6s0.9-0.2,1.2-0.6
	c8.4-11.5,13.5-21.2,13.5-25.7C29.6,8.3,22.9,1.6,14.9,1.6z"/>
<circle class="st5" cx="14.9" cy="16.5" r="6.8"/>
<line class="st0" x1="108.4" y1="56.2" x2="89.7" y2="56.2"/>
</svg>
